<?xml version="1.0" standalone="no"?>
<!DOCTYPE svg PUBLIC "-//W3C//DTD SVG 20010904//EN"
 "http://www.w3.org/TR/2001/REC-SVG-20010904/DTD/svg10.dtd">
<svg version="1.0" xmlns="http://www.w3.org/2000/svg"
 width="500.000000pt" height="500.000000pt" viewBox="0 0 500.000000 500.000000"
 preserveAspectRatio="xMidYMid meet">

<g transform="translate(0.000000,500.000000) scale(0.100000,-0.100000)"
fill="#000000" stroke="none">
<path d="M2497 3403 c-11 -10 -8 -73 3 -73 6 0 10 18 10 40 0 41 -2 45 -13 33z"/>
<path d="M2251 3220 c13 -22 26 -40 31 -40 13 0 10 12 -12 48 -28 46 -46 40
-19 -8z"/>
<path d="M2737 3231 c-10 -18 -13 -32 -8 -36 9 -5 41 42 41 60 0 14 -18 2 -33
-24z"/>
<path d="M2490 3180 c0 -22 5 -40 10 -40 6 0 10 18 10 40 0 22 -4 40 -10 40
-5 0 -10 -18 -10 -40z"/>
<path d="M1977 3193 c-4 -6 14 -29 38 -53 27 -27 45 -38 45 -29 0 19 -76 94
-83 82z"/>
<path d="M2980 3155 c-19 -19 -29 -35 -24 -35 13 0 69 58 63 65 -3 2 -21 -11
-39 -30z"/>
<path d="M2673 3128 c-12 -21 -18 -40 -14 -43 12 -7 43 43 39 63 -2 12 -10 6
-25 -20z"/>
<path d="M2307 3143 c-3 -5 5 -22 18 -39 15 -18 24 -23 24 -14 1 21 -35 65
-42 53z"/>
<path d="M2875 3050 c-27 -27 -45 -50 -39 -50 5 0 32 23 59 50 27 28 45 50 39
50 -5 0 -32 -22 -59 -50z"/>
<path d="M2100 3062 c0 -14 59 -66 67 -59 3 4 -6 21 -22 37 -28 30 -45 38 -45
22z"/>
<path d="M2410 3030 c-8 -5 -27 -10 -42 -10 -33 0 -96 -52 -104 -86 -3 -12
-17 -30 -30 -39 -52 -34 -82 -152 -53 -207 8 -15 6 -31 -10 -68 -24 -55 -26
-92 -10 -141 19 -54 58 -99 108 -123 25 -12 62 -32 81 -44 19 -12 50 -25 68
-28 63 -12 62 -20 62 381 0 322 -2 364 -16 369 -22 8 -37 7 -54 -4z m50 -266
c0 -233 -1 -255 -16 -243 -9 7 -28 38 -44 68 -29 57 -90 131 -109 131 -21 0
-10 -29 15 -42 16 -8 43 -41 66 -83 21 -38 50 -80 64 -92 23 -21 25 -28 22
-110 l-3 -88 -32 1 c-17 1 -42 9 -54 18 l-23 16 22 0 c12 0 25 7 29 15 8 24
-4 30 -31 15 -83 -44 -214 85 -193 189 8 40 26 81 34 81 5 0 22 -14 40 -30 34
-32 63 -39 63 -15 0 8 -7 15 -15 15 -27 0 -66 32 -86 71 -25 50 -25 113 2 156
23 37 89 76 122 71 15 -2 23 3 25 16 3 15 0 18 -21 12 -14 -3 -33 -9 -42 -12
-32 -13 11 52 44 65 45 19 65 11 75 -30 12 -49 1 -86 -36 -121 -24 -22 -28
-32 -19 -41 9 -9 17 -5 36 18 44 54 53 109 30 183 -6 18 -4 22 14 22 21 0 21
-2 21 -256z"/>
<path d="M2533 3029 c-18 -18 -19 -719 -1 -737 24 -24 52 -16 193 61 110 59
150 160 105 264 -17 40 -19 56 -11 71 16 31 13 109 -6 149 -9 19 -29 44 -44
55 -15 11 -30 30 -33 42 -8 33 -61 78 -103 87 -21 4 -49 11 -63 14 -15 4 -30
1 -37 -6z m41 -36 c-18 -58 -10 -118 20 -161 28 -41 56 -55 56 -28 0 7 -11 21
-25 30 -49 32 -58 155 -11 164 30 6 76 -19 92 -51 15 -28 15 -29 -1 -23 -9 3
-28 9 -42 12 -21 6 -24 3 -21 -12 2 -13 10 -18 25 -16 33 5 101 -35 123 -71
24 -39 26 -107 4 -153 -18 -37 -62 -74 -88 -74 -9 0 -16 -7 -16 -15 0 -25 32
-17 68 18 32 31 34 31 47 13 25 -33 29 -102 10 -151 -29 -78 -128 -137 -178
-106 -13 9 -23 9 -29 3 -14 -14 -1 -32 25 -32 21 0 21 0 -2 -16 -12 -9 -37
-17 -54 -18 l-32 -1 -3 88 c-3 83 -2 88 23 110 14 12 43 54 64 92 20 39 48 75
60 81 37 19 47 32 28 40 -22 8 -81 -55 -117 -127 -16 -30 -35 -61 -44 -68 -15
-12 -16 10 -16 236 0 137 3 253 7 256 3 4 13 7 21 7 11 0 12 -6 6 -27z"/>
<path d="M1845 2940 c8 -14 76 -41 89 -37 6 2 -8 14 -31 25 -45 24 -68 28 -58
12z"/>
<path d="M3118 2943 c-19 -5 -25 -23 -9 -23 17 0 41 12 41 21 0 9 -4 10 -32 2z"/>
<path d="M1981 2881 c6 -18 89 -53 89 -38 0 7 -17 19 -37 27 -21 8 -42 17 -47
19 -5 2 -7 -2 -5 -8z"/>
<path d="M2960 2869 c-26 -12 -39 -23 -32 -26 16 -6 92 26 92 39 0 12 -10 10
-60 -13z"/>
<path d="M1760 2670 c0 -5 25 -10 55 -10 30 0 55 5 55 10 0 6 -25 10 -55 10
-30 0 -55 -4 -55 -10z"/>
<path d="M1920 2670 c0 -5 25 -10 56 -10 34 0 53 4 49 10 -3 6 -28 10 -56 10
-27 0 -49 -4 -49 -10z"/>
<path d="M2970 2660 c0 -5 23 -10 50 -10 28 0 50 5 50 10 0 6 -22 10 -50 10
-27 0 -50 -4 -50 -10z"/>
<path d="M3120 2661 c0 -5 21 -6 48 -4 70 7 74 11 10 12 -32 1 -58 -3 -58 -8z"/>
<path d="M2033 2492 c-18 -9 -33 -19 -33 -24 0 -12 11 -9 49 11 42 23 28 34
-16 13z"/>
<path d="M2930 2500 c0 -9 31 -30 44 -30 16 0 3 18 -19 28 -14 7 -25 8 -25 2z"/>
<path d="M1915 2428 c-48 -25 -50 -26 -43 -34 8 -8 88 34 88 46 0 12 3 13 -45
-12z"/>
<path d="M3030 2442 c0 -4 25 -20 55 -35 30 -15 55 -22 55 -17 0 5 -22 21 -50
35 -54 27 -60 29 -60 17z"/>
<path d="M2137 2323 c-4 -3 -7 -13 -7 -21 0 -12 3 -12 15 -2 8 7 15 16 15 21
0 11 -14 12 -23 2z"/>
<path d="M2830 2322 c0 -14 49 -56 57 -49 3 4 -4 18 -17 32 -24 25 -40 32 -40
17z"/>
<path d="M2405 2250 c3 -5 46 -10 95 -10 49 0 92 5 95 10 4 6 -30 10 -95 10
-65 0 -99 -4 -95 -10z"/>
<path d="M2010 2190 c-23 -27 -38 -50 -33 -50 16 0 95 88 85 94 -6 3 -29 -16
-52 -44z"/>
<path d="M2955 2190 c27 -27 51 -47 54 -45 6 7 -80 95 -93 95 -6 0 12 -22 39
-50z"/>
<path d="M2448 2213 c28 -2 76 -2 105 0 28 2 5 3 -53 3 -58 0 -81 -1 -52 -3z"/>
<path d="M2448 2173 c28 -2 76 -2 105 0 28 2 5 3 -53 3 -58 0 -81 -1 -52 -3z"/>
<path d="M2413 2133 c9 -2 17 -10 17 -17 0 -21 45 -56 71 -56 25 0 69 36 69
57 0 7 8 14 18 16 9 3 -30 5 -88 5 -58 0 -97 -2 -87 -5z m137 -16 c0 -21 -22
-37 -50 -37 -28 0 -50 16 -50 37 0 9 16 13 50 13 34 0 50 -4 50 -13z"/>
<path d="M1200 1810 l0 -240 86 0 c118 0 158 14 220 75 42 42 54 61 63 105 15
70 6 129 -30 184 -51 82 -134 116 -281 116 l-58 0 0 -240z m207 108 c53 -49
66 -108 39 -173 -17 -39 -68 -75 -108 -75 l-28 0 0 141 0 142 36 -6 c20 -4 48
-17 61 -29z"/>
<path d="M1627 2043 c-4 -3 -7 -111 -7 -240 l0 -233 55 0 54 0 3 100 3 100 85
-100 85 -99 73 0 c39 -1 72 1 72 3 0 3 -47 58 -105 123 -58 65 -105 120 -105
123 0 3 40 52 90 110 49 58 89 108 90 113 0 4 -27 7 -59 7 l-59 0 -84 -97 -83
-97 -3 97 -3 97 -48 0 c-26 0 -51 -3 -54 -7z"/>
<path d="M2232 1856 c3 -180 5 -197 24 -223 37 -49 81 -68 159 -68 78 0 122
19 159 68 19 26 21 44 24 223 l4 195 -54 -3 -53 -3 -5 -173 c-6 -193 -9 -202
-75 -202 -66 0 -69 9 -75 202 l-5 173 -53 3 -53 3 3 -195z"/>
<path d="M2668 2045 c-5 -5 -8 -113 -8 -242 l0 -233 55 0 54 0 3 88 3 87 65 5
c39 3 77 12 93 23 87 57 89 193 3 246 -30 19 -56 24 -149 28 -61 3 -115 2
-119 -2z m197 -110 c14 -13 25 -31 25 -38 0 -30 -35 -58 -78 -64 l-42 -6 0 67
0 66 35 0 c25 0 44 -8 60 -25z"/>
<path d="M3142 2030 c-49 -30 -74 -76 -69 -128 6 -55 39 -91 123 -133 73 -36
89 -63 54 -91 -30 -25 -67 -22 -119 7 -23 14 -45 25 -47 25 -2 0 -16 -19 -30
-42 l-26 -41 23 -19 c39 -29 126 -51 182 -45 94 12 148 63 149 141 1 65 -22
92 -120 144 -69 36 -82 47 -82 68 0 36 37 47 97 29 26 -8 49 -15 50 -15 0 0
11 16 23 37 17 29 19 38 8 48 -41 38 -164 47 -216 15z"/>
<path d="M3585 2038 c-85 -31 -153 -111 -169 -201 -19 -104 67 -230 180 -263
64 -18 146 -14 195 11 34 18 35 23 12 70 -14 29 -21 35 -38 30 -11 -4 -45 -9
-75 -11 -44 -4 -62 -1 -88 15 -150 95 -38 305 134 248 l45 -15 19 39 c11 21
20 42 20 48 0 32 -167 53 -235 29z"/>
<path d="M2723 1360 c0 -41 2 -58 4 -37 2 20 2 54 0 75 -2 20 -4 3 -4 -38z"/>
<path d="M3060 1420 c0 -5 5 -10 10 -10 6 0 10 5 10 10 0 6 -4 10 -10 10 -5 0
-10 -4 -10 -10z"/>
<path d="M1622 1411 c-25 -16 -10 -54 26 -63 34 -9 43 -32 16 -42 -8 -3 -25
-1 -36 5 -16 9 -19 8 -16 -3 6 -17 55 -23 74 -7 26 22 16 45 -28 63 -39 15
-41 18 -25 30 10 8 27 12 37 9 11 -3 20 0 20 6 0 13 -49 15 -68 2z"/>
<path d="M2432 1411 c-25 -16 -10 -54 26 -63 34 -9 43 -32 16 -42 -8 -3 -25
-1 -36 5 -16 9 -19 8 -16 -3 6 -17 55 -23 74 -7 26 22 16 45 -28 63 -39 15
-41 18 -25 30 10 8 27 12 37 9 11 -3 20 0 20 6 0 13 -49 15 -68 2z"/>
<path d="M2231 1393 c-9 -10 -10 -17 -3 -22 6 -3 12 -22 14 -41 2 -29 7 -35
28 -37 14 -2 19 0 10 4 -21 8 -30 24 -30 51 0 13 6 22 15 22 8 0 15 5 15 10 0
6 -6 10 -14 10 -8 0 -16 4 -18 9 -1 5 -9 2 -17 -6z"/>
<path d="M2953 1396 c-6 -8 -8 -17 -3 -22 5 -5 10 -25 12 -44 2 -27 8 -36 26
-38 12 -2 22 1 22 7 0 6 -6 10 -12 9 -17 -4 -23 53 -7 63 9 5 9 11 -4 23 -19
19 -19 19 -34 2z"/>
<path d="M1761 1335 l1 -50 10 43 c8 36 13 43 31 40 17 -2 23 -11 25 -40 2
-21 7 -38 12 -38 5 0 10 17 12 38 2 30 7 38 26 40 20 3 22 -1 22 -37 0 -23 5
-41 11 -41 6 0 9 17 7 41 -4 50 -27 71 -58 52 -12 -8 -21 -9 -25 -3 -3 6 -22
9 -41 7 l-34 -2 1 -50z"/>
<path d="M1990 1380 c-11 -7 -7 -10 18 -10 41 0 42 -16 1 -24 -25 -5 -30 -10
-27 -28 2 -19 10 -23 41 -24 36 -1 37 0 37 35 0 54 -31 76 -70 51z m48 -62
c-7 -19 -38 -22 -38 -4 0 10 9 16 21 16 12 0 19 -5 17 -12z"/>
<path d="M2131 1335 c1 -48 1 -49 9 -15 5 18 15 39 24 46 23 16 20 22 -9 20
-23 -1 -25 -4 -24 -51z"/>
<path d="M2575 1370 c-24 -27 -13 -68 22 -76 34 -9 57 6 61 42 6 49 -49 72
-83 34z m63 -29 c4 -29 -15 -43 -40 -30 -18 10 -24 39 -11 53 15 15 48 1 51
-23z"/>
<path d="M2800 1352 c0 -47 14 -61 58 -60 32 1 32 2 32 50 0 26 -4 48 -10 48
-5 0 -10 -18 -10 -40 0 -36 -2 -40 -25 -40 -22 0 -25 4 -25 34 0 19 -4 38 -10
41 -6 4 -10 -9 -10 -33z"/>
<path d="M3067 1383 c-11 -10 -8 -93 3 -93 6 0 10 23 10 50 0 51 -1 55 -13 43z"/>
<path d="M3155 1374 c-19 -20 -16 -63 6 -77 26 -16 68 0 75 29 12 48 -46 83
-81 48z m63 -28 c5 -23 -23 -47 -44 -39 -15 5 -19 44 -7 57 13 13 48 1 51 -18z"/>
<path d="M3301 1335 l1 -50 10 43 c8 35 13 42 34 42 21 0 24 -4 24 -40 0 -22
5 -40 10 -40 15 0 12 76 -3 89 -7 6 -28 9 -45 8 -32 -2 -32 -3 -31 -52z"/>
</g>
</svg>
